<?xml version="1.0" standalone="no"?>
<!DOCTYPE svg PUBLIC "-//W3C//DTD SVG 20010904//EN"
 "http://www.w3.org/TR/2001/REC-SVG-20010904/DTD/svg10.dtd">
<svg version="1.0" xmlns="http://www.w3.org/2000/svg"
 width="70" height="65" viewBox="0 0 768.000000 466.000000"
 
 preserveAspectRatio="xMidYMid meet">

<g transform="translate(0.000000,466.000000) scale(0.100000,-0.100000)"
fill="#000000" stroke="none">
<path d="M1359 4475 c-27 -14 -59 -69 -59 -99 0 -35 30 -85 59 -100 49 -26 95
-20 136 15 31 28 35 36 35 81 0 44 -4 54 -34 84 -27 27 -42 34 -72 34 -22 -1
-51 -7 -65 -15z"/>
<path d="M1170 4369 c-12 -22 11 -72 91 -192 l39 -58 0 -298 c0 -218 3 -300
12 -309 19 -19 66 -15 78 7 6 12 10 94 10 196 0 137 3 176 13 173 9 -4 13 -53
17 -184 3 -98 9 -185 13 -191 10 -16 59 -17 75 -1 9 9 12 91 12 308 0 272 1
297 18 311 23 20 132 202 132 221 0 22 -21 38 -50 38 -21 0 -33 -13 -69 -72
-59 -98 -69 -108 -103 -108 -23 0 -28 -4 -24 -17 3 -10 10 -49 17 -86 10 -61
9 -70 -6 -87 -10 -11 -23 -20 -30 -20 -7 0 -20 9 -30 20 -15 17 -16 26 -6 87
7 37 14 76 17 85 4 12 -2 17 -22 20 -22 2 -37 20 -81 91 -48 77 -58 87 -83 87
-19 0 -33 -7 -40 -21z"/>
<path d="M2648 4064 c-34 -18 -58 -62 -58 -104 0 -117 151 -165 210 -68 65
108 -44 231 -152 172z"/>
<path d="M5224 3926 c-29 -29 -34 -41 -34 -81 0 -40 5 -52 34 -81 40 -40 92
-46 142 -15 67 41 67 151 1 191 -51 32 -103 26 -143 -14z"/>
<path d="M2785 3813 c-53 -7 -55 -8 -44 -50 6 -21 23 -54 38 -73 59 -75 62
-100 11 -100 -47 0 -90 79 -90 166 0 37 -3 44 -19 44 -41 0 -68 -20 -94 -69
-15 -28 -32 -53 -37 -56 -5 -3 -35 10 -66 30 -67 43 -98 43 -102 0 -2 -28 4
-34 81 -82 47 -29 92 -53 101 -53 9 0 29 20 44 45 15 24 30 45 33 45 7 0 19
-86 19 -135 0 -21 -15 -51 -45 -93 -25 -34 -45 -70 -45 -80 0 -18 57 -191 85
-258 12 -30 19 -34 50 -34 28 0 38 5 47 24 9 21 4 44 -29 141 l-40 115 36 50
c32 45 65 69 77 58 2 -3 8 -38 13 -78 5 -40 15 -79 23 -86 16 -16 292 -76 314
-67 23 9 36 50 23 74 -13 25 -31 32 -147 54 -51 10 -95 22 -98 27 -4 5 -16 88
-28 184 l-22 175 22 -5 c58 -15 76 -26 69 -44 -45 -112 -48 -122 -35 -137 7
-9 24 -15 38 -13 21 3 30 16 59 93 19 49 33 98 31 110 -2 15 -23 27 -93 52
-87 30 -115 35 -180 26z"/>
<path d="M5136 3684 c-3 -9 -6 -64 -6 -123 0 -110 7 -131 42 -131 17 0 18 -14
18 -208 0 -220 2 -232 46 -232 47 0 54 29 54 233 0 146 3 188 13 185 9 -4 13
-55 15 -201 2 -187 3 -197 23 -208 29 -15 65 -4 73 23 3 13 6 106 6 208 0 175
-1 187 -21 203 -19 16 -20 27 -17 142 l3 125 -32 0 c-18 0 -33 -2 -33 -4 0 -3
7 -35 16 -72 15 -67 15 -67 -8 -90 l-23 -23 -24 20 c-24 19 -24 22 -13 83 16
85 16 86 -15 86 l-28 0 3 -117 c3 -96 0 -122 -12 -138 -15 -19 -16 -19 -6 8
13 37 13 203 0 228 -13 24 -65 26 -74 3z"/>
<path d="M5401 3687 c-8 -10 -11 -51 -9 -127 3 -95 6 -115 21 -124 12 -8 22
-8 35 0 15 10 17 28 17 135 l0 124 -26 3 c-14 2 -31 -3 -38 -11z"/>
<path d="M1386 3428 c-3 -7 -7 -35 -10 -62 -7 -56 -16 -66 -66 -66 -19 0 -45
-3 -58 -6 -20 -6 -26 1 -50 55 -24 54 -30 61 -52 59 -18 -2 -24 -8 -23 -23 2
-11 5 -43 9 -70 6 -50 6 -50 -30 -68 -52 -24 -59 -22 -100 28 -39 47 -56 54
-75 31 -9 -11 -6 -26 16 -70 l27 -56 -34 -35 c-19 -19 -39 -35 -45 -35 -7 0
-33 16 -58 36 -28 22 -53 34 -62 30 -31 -12 -27 -36 14 -82 23 -26 41 -50 41
-55 0 -4 -14 -28 -31 -53 l-30 -45 -64 24 c-63 23 -65 23 -75 5 -16 -29 -13
-33 45 -70 30 -19 55 -39 55 -43 0 -4 -6 -22 -14 -40 l-13 -33 -67 6 c-37 3
-69 4 -72 1 -2 -2 -4 -14 -4 -26 0 -16 12 -25 56 -40 60 -20 70 -31 60 -69 -7
-28 -16 -32 -98 -41 -52 -6 -58 -9 -58 -30 0 -21 6 -25 47 -30 91 -12 101 -16
107 -38 11 -40 6 -46 -54 -68 -52 -19 -60 -25 -60 -47 0 -24 1 -25 71 -20 65
5 71 4 78 -16 23 -61 24 -60 -34 -95 -58 -35 -61 -41 -45 -71 10 -18 12 -18
72 6 34 13 63 24 63 24 1 0 16 -23 34 -51 35 -56 35 -53 -23 -117 -30 -32 -30
-32 -10 -52 20 -20 20 -20 71 16 l52 36 40 -33 c23 -18 41 -36 41 -41 0 -5
-12 -31 -26 -59 -20 -40 -23 -54 -13 -65 18 -22 30 -17 75 34 l42 47 47 -23
47 -23 -6 -47 c-13 -89 -13 -87 15 -90 24 -3 29 3 50 52 24 60 26 61 79 47 19
-5 47 -12 61 -15 25 -5 27 -11 33 -76 7 -69 8 -70 36 -70 27 0 28 1 35 70 l7
69 36 7 c21 3 53 10 72 15 19 5 38 9 41 9 3 0 18 -27 34 -60 20 -41 33 -59 43
-55 7 3 18 5 24 5 10 0 5 58 -9 117 -4 19 3 26 42 45 l47 23 44 -49 c29 -31
49 -46 59 -42 27 10 27 33 0 86 l-27 52 33 34 c18 19 39 34 47 34 7 0 34 -16
58 -35 39 -29 49 -32 65 -22 26 16 25 22 -21 76 -22 26 -40 50 -40 54 0 8 60
97 66 97 2 0 31 -11 64 -24 58 -24 60 -24 70 -6 16 30 13 36 -45 71 -30 18
-55 37 -55 41 0 5 6 24 14 42 l14 33 71 -5 c71 -5 71 -5 71 21 0 22 -8 28 -65
47 -64 21 -64 22 -58 53 7 40 4 37 49 43 78 11 84 13 84 38 0 19 -7 24 -37 30
-21 3 -50 6 -64 6 -22 0 -28 6 -33 31 -3 17 -6 35 -6 39 0 5 29 19 65 32 52
18 65 27 65 44 0 11 -2 23 -4 25 -3 3 -35 2 -71 -1 -65 -5 -67 -5 -81 22 -22
42 -18 51 41 88 58 37 61 41 45 70 -10 18 -12 18 -75 -5 l-64 -25 -31 45 c-16
24 -30 48 -30 53 0 5 18 30 41 56 41 46 45 70 15 82 -8 3 -36 -10 -62 -30 -26
-20 -52 -36 -58 -36 -16 1 -76 58 -76 72 0 7 11 31 25 53 30 49 31 72 4 80
-17 6 -30 -3 -66 -44 l-44 -51 -42 21 c-23 12 -44 23 -46 25 -2 2 2 33 9 69
14 72 14 70 -16 79 -17 5 -24 -2 -44 -46 -35 -77 -31 -75 -106 -67 -72 7 -84
16 -84 64 -1 54 -11 75 -36 75 -14 0 -26 -6 -28 -12z m222 -252 c259 -89 422
-314 422 -586 0 -170 -56 -305 -175 -426 -122 -124 -267 -185 -435 -185 -176
0 -315 57 -441 181 -120 119 -179 261 -179 430 0 166 54 300 166 420 96 102
209 164 344 190 76 15 217 3 298 -24z"/>
<path d="M1270 3144 c-217 -57 -391 -251 -422 -470 -33 -242 89 -479 304 -588
171 -86 355 -86 528 1 212 108 335 345 302 585 -32 225 -204 416 -427 473 -74
19 -212 18 -285 -1z m235 -415 c17 -10 41 -37 54 -59 60 -107 -19 -240 -141
-240 -60 0 -98 19 -134 65 -69 91 -20 229 90 256 41 9 94 1 131 -22z"/>
<path d="M3943 3163 c-31 -6 -79 -56 -86 -90 -13 -66 30 -134 93 -147 67 -13
140 49 140 119 0 34 -30 89 -57 103 -26 13 -64 19 -90 15z"/>
<path d="M5226 2881 l-7 -58 -46 -7 c-76 -10 -78 -9 -103 44 -19 40 -28 50
-44 48 -23 -3 -26 -24 -13 -89 7 -35 6 -37 -33 -57 l-41 -20 -37 44 c-38 46
-53 53 -70 32 -7 -9 -3 -28 14 -62 13 -28 24 -52 24 -55 0 -3 -16 -19 -35 -34
l-36 -28 -48 35 c-47 35 -49 35 -65 17 -16 -18 -15 -21 23 -65 l40 -47 -27
-39 c-31 -45 -36 -46 -92 -24 -75 30 -100 -15 -30 -55 49 -27 53 -34 45 -72
l-7 -31 -63 4 c-57 3 -64 2 -69 -16 -7 -26 -2 -30 61 -51 50 -16 53 -18 47
-43 -10 -40 -12 -42 -54 -42 -53 0 -70 -8 -70 -35 0 -20 6 -23 56 -28 31 -3
57 -7 59 -9 2 -2 5 -16 7 -32 3 -28 0 -30 -55 -49 -43 -14 -57 -23 -53 -34 3
-8 6 -19 6 -23 0 -5 29 -7 63 -3 61 5 64 5 70 -18 11 -41 8 -47 -38 -79 -73
-50 -54 -85 32 -56 25 9 49 16 52 16 4 0 17 -20 31 -45 l24 -44 -25 -28 c-49
-55 -51 -58 -31 -77 18 -15 21 -14 64 18 l44 34 38 -32 38 -31 -25 -50 c-19
-36 -23 -53 -15 -62 17 -21 30 -15 68 27 l35 41 43 -17 c41 -17 42 -18 35 -53
-13 -65 -10 -86 13 -89 16 -2 25 8 44 47 20 44 26 49 49 46 108 -17 98 -10
104 -67 4 -28 11 -56 16 -61 20 -20 39 2 45 56 l7 55 42 7 c23 3 54 8 68 11
22 4 28 -1 49 -46 19 -40 28 -50 44 -48 23 3 26 24 13 89 -7 35 -6 36 34 54
l41 19 37 -42 c38 -44 49 -50 68 -31 9 9 6 24 -13 62 l-26 50 34 34 34 33 49
-34 c37 -27 52 -33 62 -24 20 16 16 27 -22 74 l-36 43 27 41 c15 22 31 40 35
40 5 0 31 -9 59 -19 49 -19 51 -19 60 -1 15 27 14 27 -40 61 -27 17 -50 32
-50 33 0 2 5 18 11 35 12 33 12 33 73 29 59 -3 61 -2 61 21 0 20 -8 27 -47 40
-58 20 -60 23 -52 54 5 23 12 27 65 33 53 6 59 9 59 29 0 25 -22 35 -78 35
-26 0 -35 5 -42 26 -15 38 -14 40 43 60 44 16 52 23 52 44 0 24 -2 25 -62 22
-60 -4 -63 -3 -73 23 -14 37 -15 37 40 73 53 34 55 38 40 62 -8 12 -15 12 -57
-3 -65 -23 -69 -23 -99 23 l-26 39 36 42 c39 46 43 58 24 77 -9 9 -23 3 -60
-23 -52 -38 -65 -37 -103 4 -19 22 -19 22 8 76 l27 55 -22 11 c-18 10 -25 6
-60 -35 l-39 -46 -40 21 c-38 19 -39 21 -32 57 13 67 10 87 -13 90 -17 2 -25
-7 -43 -49 l-23 -51 -61 7 c-34 3 -65 9 -69 11 -4 3 -8 20 -8 37 0 55 -10 77
-35 77 -20 0 -23 -6 -29 -59z m24 -121 c0 -5 -11 -10 -25 -10 -14 0 -25 5 -25
10 0 6 11 10 25 10 14 0 25 -4 25 -10z m109 -6 c2 -2 2 -6 -1 -9 -9 -10 -58 6
-52 16 5 9 41 3 53 -7z m-219 -3 c0 -9 -24 -21 -41 -21 -16 0 -10 18 9 23 28
8 32 7 32 -2z m320 -21 c0 -5 -9 -10 -19 -10 -11 0 -23 5 -26 10 -4 6 5 10 19
10 14 0 26 -4 26 -10z m-420 -10 c0 -12 -40 -33 -48 -25 -4 4 2 13 12 21 23
16 36 18 36 4z m504 -26 c17 -6 22 -24 8 -24 -5 0 -17 7 -28 15 -19 15 -8 20
20 9z m-304 -33 c0 -25 -5 -29 -32 -34 -23 -4 -37 0 -45 11 -27 33 -14 44 60
51 12 1 17 -6 17 -28z m172 13 c4 -3 2 -16 -4 -30 -9 -19 -17 -24 -32 -20 -12
3 -33 6 -48 6 -25 0 -28 4 -28 31 l0 32 52 -7 c28 -4 55 -9 60 -12z m-485 -21
c-9 -9 -20 -13 -24 -9 -4 4 1 14 11 22 25 18 35 8 13 -13z m183 -24 c0 -22
-41 -45 -64 -36 -27 10 -18 36 17 51 37 15 47 12 47 -15z m398 1 c28 -17 31
-23 22 -40 -13 -24 -13 -24 -50 -5 -21 11 -30 23 -30 40 0 30 14 31 58 5z
m138 -17 c-8 -9 -46 18 -40 28 4 6 13 4 25 -7 11 -9 17 -19 15 -21z m-786 -12
c0 -13 -29 -35 -37 -28 -7 8 15 37 28 37 5 0 9 -4 9 -9z m140 -36 c0 -6 -9
-20 -20 -30 -19 -17 -21 -17 -41 1 l-21 19 28 22 c28 22 54 17 54 -12z m600
-4 c0 -11 -29 -35 -35 -29 -10 9 7 38 21 38 8 0 14 -4 14 -9z m108 -3 c14 -14
16 -28 2 -28 -5 0 -14 9 -20 20 -12 22 -1 27 18 8z m-468 -148 c0 -114 -3
-150 -13 -150 -7 0 -59 47 -116 104 l-103 103 29 20 c62 44 127 71 176 72 l27
1 0 -150z m199 114 c39 -19 71 -39 71 -45 0 -9 -206 -219 -215 -219 -3 0 -5
68 -5 150 l0 150 39 0 c24 0 65 -13 110 -36z m-649 -1 c-1 -14 -30 -47 -36
-41 -8 8 14 48 26 48 6 0 10 -3 10 -7z m120 -46 c0 -5 -9 -22 -20 -37 -14 -20
-26 -27 -40 -23 -33 9 -33 21 1 64 30 38 33 40 46 23 7 -10 13 -22 13 -27z
m765 -18 c-11 -16 -40 -10 -53 12 -11 17 -11 23 0 36 11 13 15 12 35 -12 13
-14 21 -31 18 -36z m105 -11 c0 -14 -18 -9 -24 8 -11 28 -6 39 9 20 8 -11 15
-23 15 -28z m-1050 -20 c0 -19 -18 -43 -25 -36 -4 3 -2 16 5 27 12 24 20 27
20 9z m874 -53 c27 -46 59 -152 50 -166 -9 -15 -314 -11 -314 3 0 7 48 61 107
120 117 118 114 117 157 43z m-519 -55 c69 -69 96 -103 89 -110 -7 -7 -63 -10
-150 -8 l-139 3 3 30 c5 62 63 185 87 185 6 0 55 -45 110 -100z m665 3 c0 -7
-8 -13 -18 -13 -12 0 -25 14 -37 40 -15 33 -16 42 -5 56 12 14 16 11 36 -28
13 -24 23 -49 24 -55z m-925 53 c16 -12 17 -18 8 -39 -9 -19 -17 -23 -37 -20
-29 6 -31 11 -14 48 13 29 17 30 43 11z m990 -7 c6 -19 0 -38 -9 -28 -10 12
-16 49 -7 49 5 0 13 -9 16 -21z m-1121 -67 c-6 -20 -24 -32 -24 -14 1 23 14
52 21 45 5 -5 6 -18 3 -31z m1148 -66 c-8 -15 -24 24 -16 42 6 14 8 13 14 -8
4 -14 5 -29 2 -34z m-1034 -5 c3 -29 1 -31 -27 -31 -26 0 -31 4 -31 24 0 42 9
56 33 47 15 -6 23 -18 25 -40z m960 -4 c3 -22 -1 -27 -18 -27 -23 0 -35 22
-26 46 10 25 41 12 44 -19z m-1088 -21 c0 -14 -4 -28 -10 -31 -6 -4 -10 7 -10
24 0 17 5 31 10 31 6 0 10 -11 10 -24z m1171 -79 c-8 -8 -11 -2 -11 19 0 40
14 54 18 19 2 -15 -1 -32 -7 -38z m-1061 19 c0 -2 3 -11 6 -20 4 -12 0 -16
-15 -16 -12 0 -21 2 -21 4 0 2 -3 11 -6 20 -4 12 0 16 15 16 12 0 21 -2 21 -4z
m363 -28 c-33 -39 -67 -72 -134 -135 l-49 -46 -19 24 c-20 24 -54 109 -65 162
l-6 27 151 0 151 0 -29 -32z m500 0 c-11 -59 -42 -133 -71 -167 l-27 -33 -108
106 c-59 59 -107 111 -107 116 0 6 63 10 160 10 l160 0 -7 -32z m117 10 c0
-30 -15 -52 -29 -44 -12 8 -15 49 -4 59 14 15 33 6 33 -15z m-1087 -33 c3 -16
0 -24 -7 -22 -14 4 -21 47 -8 47 5 0 12 -11 15 -25z m557 -145 l0 -150 -33 0
c-37 0 -164 58 -186 84 -13 16 -5 27 85 117 54 54 107 99 116 99 16 0 18 -13
18 -150z m168 46 c56 -58 102 -109 102 -115 0 -21 -111 -72 -187 -85 l-33 -5
0 154 c0 85 4 155 8 155 5 0 55 -47 110 -104z m426 52 c-8 -28 -12 -33 -20
-25 -9 8 6 47 17 47 6 0 7 -10 3 -22z m-1009 -8 c6 -20 -9 -50 -25 -50 -7 0
-30 53 -30 66 0 2 11 4 24 4 16 0 27 -7 31 -20z m918 -7 c3 -5 0 -20 -6 -35
-16 -36 -43 -23 -33 16 6 24 29 35 39 19z m-1035 -52 c4 -28 -13 -20 -21 9 -3
14 -1 20 6 17 7 -2 14 -14 15 -26z m180 -60 l31 -39 -20 -18 c-20 -18 -21 -18
-39 6 -38 50 -45 70 -30 80 22 14 24 13 58 -29z m910 14 c-6 -13 -15 -22 -19
-19 -11 6 8 44 21 44 6 0 5 -10 -2 -25z m-98 -14 c0 -3 -11 -19 -24 -36 -19
-23 -27 -27 -36 -18 -17 16 24 75 45 66 8 -3 15 -8 15 -12z m-945 -49 c-9 -9
-36 28 -29 40 4 5 13 0 21 -12 8 -12 12 -24 8 -28z m989 -33 c-21 -24 -29 -18
-14 10 6 12 16 19 21 15 6 -4 4 -13 -7 -25z m-764 -27 c0 -5 -6 -16 -13 -26
-12 -16 -14 -16 -31 3 -15 17 -16 23 -6 36 9 11 17 12 31 4 10 -5 19 -13 19
-17z m-165 -12 c14 -15 15 -20 4 -20 -8 0 -20 9 -27 20 -7 11 -8 20 -4 20 5 0
17 -9 27 -20z m771 9 c10 -17 -23 -46 -38 -31 -8 8 -8 15 2 27 15 18 26 19 36
4z m-503 -84 c-6 -30 -9 -30 -52 -4 -32 19 -32 21 -16 39 16 17 20 18 45 5 22
-11 26 -19 23 -40z m592 35 c-10 -11 -20 -18 -23 -15 -7 6 18 35 31 35 5 0 2
-9 -8 -20z m-165 -20 c0 -12 -57 -33 -69 -25 -18 11 -12 24 17 39 26 14 52 7
52 -14z m-610 -32 c0 -4 -9 -3 -20 4 -11 7 -20 19 -20 27 0 11 5 10 20 -4 11
-10 20 -22 20 -27z m338 -12 l4 -29 -57 6 c-32 3 -59 8 -62 11 -2 2 1 14 7 26
9 18 19 21 58 18 44 -3 47 -5 50 -32z m149 18 c8 -21 -5 -31 -54 -39 -41 -6
-43 -6 -43 18 0 19 6 27 23 30 46 9 68 6 74 -9z m208 -24 c-10 -11 -22 -17
-28 -13 -6 4 -3 12 8 20 28 20 41 16 20 -7z m-611 -25 c19 -15 19 -15 -1 -15
-11 0 -26 7 -33 15 -17 20 7 20 34 0z m515 -31 c-13 -7 -26 -10 -29 -7 -8 8
32 33 43 26 5 -3 -1 -12 -14 -19z m-413 -22 c-24 -5 -49 6 -41 18 3 6 16 5 32
-3 21 -9 23 -13 9 -15z m324 -1 c0 -9 -24 -21 -41 -21 -16 0 -10 18 9 23 28 8
32 7 32 -2z m-211 -17 c2 -2 2 -7 -2 -10 -8 -9 -47 6 -47 17 0 9 37 3 49 -7z
m101 -4 c0 -5 -13 -10 -30 -10 -16 0 -30 5 -30 10 0 6 14 10 30 10 17 0 30 -4
30 -10z"/>
<path d="M4016 2893 c-25 -7 -15 -54 22 -107 47 -68 62 -91 62 -98 0 -5 -18
-8 -39 -8 -35 0 -42 4 -62 37 -17 27 -25 57 -27 105 -5 74 0 71 -72 52 -9 -2
-31 -31 -51 -64 l-35 -59 -63 38 c-66 41 -96 43 -107 8 -5 -15 1 -27 20 -44
46 -39 165 -105 177 -98 6 4 24 27 39 52 32 51 35 48 45 -57 l7 -65 -46 -63
c-29 -39 -46 -72 -45 -90 0 -45 83 -273 103 -284 24 -13 63 -2 76 22 9 16 3
44 -29 136 l-40 116 37 54 c25 37 44 54 59 54 20 0 22 -7 29 -71 4 -42 13 -77
23 -88 11 -12 59 -27 148 -45 157 -31 169 -32 183 -7 31 58 2 82 -125 107 -49
9 -97 20 -105 25 -11 6 -21 53 -37 181 -11 95 -19 175 -17 177 7 8 84 -20 84
-30 0 -6 -10 -39 -22 -74 -19 -53 -20 -65 -9 -79 16 -19 45 -21 58 -3 6 6 25
52 43 101 23 63 30 94 23 105 -16 25 -170 71 -233 70 -30 -1 -63 -3 -74 -6z"/>
<path d="M3690 2135 c-8 -9 -11 -30 -7 -55 3 -24 0 -43 -7 -48 -11 -10 -116
-42 -135 -42 -5 0 -22 20 -37 45 -14 25 -30 45 -35 45 -5 0 -34 -14 -64 -31
-58 -33 -64 -47 -40 -89 8 -14 14 -32 15 -40 0 -14 -99 -100 -116 -100 -4 0
-22 11 -40 25 -43 33 -54 32 -91 -7 -56 -60 -58 -73 -18 -109 19 -18 35 -38
35 -45 0 -14 -59 -115 -73 -125 -5 -4 -29 -1 -52 7 -51 15 -56 11 -80 -56 -23
-66 -20 -78 25 -91 22 -7 45 -17 50 -24 10 -12 -1 -139 -14 -152 -4 -4 -28
-10 -54 -13 -47 -5 -47 -5 -50 -47 -2 -22 1 -56 6 -75 8 -31 11 -33 63 -38
l54 -5 18 -55 c23 -73 19 -91 -25 -115 -45 -24 -47 -38 -12 -106 27 -55 31
-56 102 -28 32 13 33 13 72 -31 54 -61 59 -84 26 -119 -36 -37 -33 -54 16 -95
51 -44 72 -45 105 -6 13 16 31 30 38 30 7 0 39 -15 71 -33 62 -35 63 -36 49
-109 -7 -37 -6 -38 29 -53 21 -9 53 -17 72 -18 34 -2 37 1 53 43 l17 45 64 -4
c86 -4 100 -13 100 -59 0 -49 14 -62 65 -61 80 2 89 9 95 69 5 53 6 55 43 68
21 6 55 15 76 18 34 5 37 4 54 -30 9 -20 24 -39 33 -43 9 -3 41 6 70 20 59 29
67 49 39 97 -8 14 -14 30 -15 36 0 13 103 94 120 94 6 0 26 -11 44 -25 18 -14
38 -25 43 -25 15 0 93 87 93 104 0 8 -13 25 -28 38 -45 38 -45 44 -6 114 30
54 40 65 58 61 92 -21 85 -23 102 19 9 22 17 54 18 73 1 31 -2 35 -41 48 l-43
15 1 51 c2 91 10 112 44 115 75 7 75 7 75 75 0 34 -4 67 -8 74 -4 6 -32 13
-61 15 l-53 3 -20 64 c-11 34 -17 69 -14 77 3 7 23 22 46 34 22 11 40 25 40
31 0 14 -39 91 -57 111 -14 15 -18 15 -59 -2 -24 -11 -50 -17 -57 -14 -15 6
-87 104 -87 119 0 6 11 22 25 35 37 35 32 60 -21 103 -26 20 -52 37 -58 37 -6
0 -25 -17 -42 -37 l-32 -38 -53 29 c-79 42 -90 53 -78 83 5 13 9 37 9 53 0 25
-6 30 -50 45 -72 24 -92 18 -106 -30 l-11 -40 -71 1 c-84 0 -100 11 -104 67
l-3 42 -66 3 c-50 2 -69 -1 -79 -13z m265 -360 c198 -51 368 -220 416 -415 19
-78 16 -222 -5 -295 -46 -156 -155 -285 -297 -353 -96 -46 -162 -62 -254 -62
-284 0 -524 210 -566 494 -42 279 144 557 421 630 73 19 211 20 285 1z"/>
<path d="M3680 1726 c-178 -50 -313 -175 -369 -343 -63 -187 -20 -379 117
-524 210 -223 554 -223 764 0 278 295 139 762 -257 867 -62 17 -195 16 -255 0z
m172 -216 c19 -33 42 -38 69 -14 24 22 59 3 59 -33 0 -41 25 -62 65 -56 31 5
35 3 41 -22 4 -18 2 -32 -8 -41 -23 -23 -10 -65 23 -78 39 -14 42 -62 5 -72
-33 -8 -46 -59 -20 -78 12 -9 15 -20 10 -39 -5 -23 -12 -27 -40 -27 -41 0 -61
-22 -61 -68 0 -45 -35 -62 -64 -31 -27 29 -67 17 -75 -22 -8 -41 -49 -41 -70
0 -20 39 -56 47 -79 19 -15 -18 -21 -19 -42 -10 -18 8 -24 20 -27 49 -3 37 -4
38 -45 41 -36 3 -44 7 -49 28 -4 17 -1 29 10 37 24 17 3 75 -30 83 -24 6 -40
36 -29 55 4 5 17 14 30 19 30 12 36 49 12 77 -27 31 -8 63 37 63 43 0 60 19
47 53 -8 20 -6 29 10 43 18 17 22 17 47 2 40 -24 82 -13 89 23 5 25 10 29 37
29 24 0 35 -7 48 -30z"/>
<path d="M6147 1833 c-4 -3 -7 -18 -7 -33 0 -37 -18 -55 -69 -69 -43 -12 -44
-12 -77 20 l-33 32 -35 -27 -35 -26 14 -41 c14 -39 14 -43 -8 -70 -20 -27 -26
-29 -72 -24 -50 6 -51 5 -67 -29 -17 -34 -17 -35 14 -64 27 -28 29 -34 23 -72
-6 -38 -12 -44 -51 -62 -44 -19 -45 -20 -38 -56 9 -50 11 -52 47 -52 30 0 33
-4 53 -59 l20 -59 -28 -23 c-27 -22 -28 -26 -18 -56 12 -32 14 -33 68 -33 78
-1 92 -14 92 -84 0 -55 1 -58 33 -71 31 -13 33 -13 62 20 30 33 31 33 75 22
41 -11 46 -16 60 -55 14 -42 16 -43 55 -40 38 3 40 5 51 48 10 43 13 45 55 52
41 8 46 6 71 -24 l26 -33 37 18 36 17 -6 55 c-7 52 -6 57 21 81 24 23 33 26
76 21 45 -6 49 -4 63 23 16 31 20 60 8 60 -5 1 -18 9 -31 20 -21 17 -22 22
-11 65 10 40 17 48 50 62 36 14 39 18 39 54 0 40 -2 42 -51 53 -21 5 -30 16
-42 53 l-16 47 30 33 c28 33 29 35 13 65 -15 29 -18 30 -66 26 -42 -5 -54 -2
-79 19 -25 21 -29 32 -29 72 0 41 -3 49 -25 59 -36 16 -42 15 -78 -12 -29 -22
-37 -24 -78 -15 -43 9 -46 12 -57 54 -11 42 -14 45 -45 45 -19 0 -37 -3 -40
-7z m81 -169 c2 -12 -4 -24 -12 -27 -19 -7 -40 18 -32 39 8 22 40 13 44 -12z
m99 -91 c153 -75 198 -270 94 -408 -50 -66 -111 -97 -202 -103 -87 -5 -153 22
-214 90 -50 55 -65 97 -65 178 0 79 15 121 60 173 86 98 214 125 327 70z
m-340 6 c16 -16 5 -39 -17 -39 -23 0 -34 16 -26 35 6 18 28 19 43 4z m481 -17
c3 -16 -2 -22 -17 -22 -24 0 -35 15 -27 36 9 23 40 13 44 -14z m-580 -240 c3
-16 -2 -22 -17 -22 -24 0 -35 15 -27 36 9 23 40 13 44 -14z m679 17 c16 -16 5
-39 -17 -39 -23 0 -34 16 -26 35 6 18 28 19 43 4z m-580 -240 c16 -16 5 -39
-17 -39 -23 0 -34 16 -26 35 6 18 28 19 43 4z m481 -17 c3 -16 -2 -22 -17 -22
-24 0 -35 15 -27 36 9 23 40 13 44 -14z m-240 -100 c3 -16 -2 -22 -17 -22 -24
0 -35 15 -27 36 9 23 40 13 44 -14z"/>
<path d="M6180 1540 c0 -24 -44 -38 -65 -20 -22 18 -48 5 -40 -20 8 -26 -11
-50 -40 -50 -28 0 -39 -24 -19 -40 20 -17 18 -37 -6 -57 -25 -22 -26 -40 -1
-48 21 -6 35 -55 20 -70 -18 -19 -9 -35 20 -35 34 0 47 -15 42 -47 -3 -26 17
-30 48 -11 23 14 51 4 58 -22 7 -28 41 -26 45 3 3 25 41 35 63 17 21 -18 45
-5 38 19 -7 27 13 51 44 51 28 0 40 24 23 45 -15 19 -5 65 15 65 8 0 15 9 15
20 0 11 -7 20 -15 20 -20 0 -40 49 -25 64 19 19 11 36 -18 36 -34 0 -52 16
-52 46 0 26 -24 38 -40 19 -14 -17 -48 -8 -55 16 -9 27 -55 26 -55 -1z m80
-159 c8 -8 15 -17 15 -20 0 -3 4 -11 8 -18 4 -6 3 -14 -2 -18 -6 -3 -8 -12 -5
-19 5 -12 -52 -48 -66 -42 -39 16 -60 32 -56 43 3 7 1 13 -5 13 -12 0 -2 39
15 55 27 27 71 30 96 6z"/>
<path d="M5785 971 c-99 -41 -69 -191 39 -191 13 0 38 12 55 26 25 21 31 33
31 66 0 52 -14 77 -55 94 -39 16 -42 16 -70 5z"/>
<path d="M6634 970 c-34 -13 -64 -59 -64 -97 0 -49 45 -93 95 -93 51 0 95 44
95 95 0 49 -15 74 -55 91 -39 16 -42 16 -71 4z"/>
<path d="M5723 733 c-10 -3 -13 -51 -13 -191 l0 -187 -35 -99 c-40 -114 -36
-139 18 -134 29 3 32 7 65 98 18 52 36 122 40 155 l8 60 22 -42 c18 -35 22
-59 22 -138 0 -53 5 -105 10 -116 13 -24 65 -26 74 -3 3 9 6 65 6 125 0 90 -4
117 -20 149 -16 31 -20 59 -20 130 0 49 4 90 9 90 5 0 19 -14 31 -30 21 -30
24 -31 93 -28 69 3 72 4 72 28 0 23 -4 25 -52 28 -49 3 -54 6 -98 57 l-47 55
-86 -1 c-48 0 -93 -3 -99 -6z"/>
<path d="M6557 718 c-12 -13 -33 -36 -45 -53 -20 -25 -32 -31 -80 -35 -53 -5
-57 -7 -57 -30 0 -24 3 -25 71 -28 l72 -3 31 38 31 38 0 -103 c0 -83 -4 -110
-20 -142 -16 -32 -20 -59 -20 -148 0 -117 6 -132 51 -132 35 0 39 13 39 126 0
76 4 102 22 139 12 25 26 45 30 45 4 0 8 -21 8 -47 0 -46 52 -224 73 -251 14
-17 57 -11 71 10 8 14 3 39 -22 110 -32 92 -32 95 -32 279 0 131 -4 189 -12
197 -8 8 -45 12 -100 12 -79 0 -91 -3 -111 -22z"/>
</g>
</svg>
